<svg width="892" height="907" viewBox="0 0 892 907" fill="none" xmlns="http://www.w3.org/2000/svg">
<path d="M836.366 658.434C872.326 596.149 891.26 525.495 891.264 453.574C891.267 381.653 872.341 310.998 836.387 248.709C800.433 186.42 748.718 134.691 686.438 98.7206C624.158 62.7503 553.508 43.8058 481.587 43.7907L481.501 453.553L836.366 658.434Z" fill="#CD4025"/>
<path d="M126.637 658.434C162.597 720.72 214.318 772.443 276.602 808.407C338.885 844.371 409.537 863.308 481.458 863.315C553.379 863.323 624.036 844.4 686.327 808.45C748.618 772.499 800.349 720.786 836.323 658.508L481.501 453.553L126.637 658.434Z" fill="#F6B26B"/>
<path d="M481.501 43.7907C409.58 43.7907 338.926 62.7205 276.639 98.6777C214.351 134.635 162.625 186.353 126.658 248.635C90.6912 310.916 71.7503 381.567 71.739 453.489C71.7277 525.41 90.6463 596.067 126.594 658.36L481.501 453.553L481.501 43.7907Z" fill="#93C47D"/>
<path d="M482.717 454.733L789.073 277.858V631.608L482.717 454.733Z" fill="#F5CBCC"/>
<path d="M482.069 102.137L788.425 279.012L482.069 455.887L482.069 102.137Z" fill="#E6B8AF"/>
<path d="M481.341 804.854L481.341 451.104L787.697 627.979L481.341 804.854Z" fill="#FCE5CD"/>
<path d="M175.659 629.117L482.015 452.242L482.015 805.992L175.659 629.117Z" fill="#FFF2CC"/>
<path d="M176.875 278.978L483.232 455.853L176.875 632.728L176.875 278.978Z" fill="#D9EAD3"/>
<path d="M481.909 102.119L481.909 455.869L175.553 278.994L481.909 102.119Z" fill="#D0DFE3"/>
</svg>
